# This file uses centimeters as units for non-parametric coordinates.

mtllib runestone.mtl
g default
v 1.275976 7.937327 0.757791
v 0.864890 8.945141 0.721386
v -1.079427 1.126421 0.934812
v -1.087502 2.344792 -1.378791
v -0.556386 0.317751 0.855746
v -0.070113 0.974180 -1.412666
v 1.508965 1.457699 1.117898
v 1.889078 1.858314 -1.417798
v 0.654163 9.261301 -1.221147
v 1.408486 7.911227 -1.246481
v -0.392268 8.415930 0.678642
v -0.757722 7.554974 -1.250000
v -0.308185 8.851727 0.597618
v -0.371612 8.787838 -1.250000
v 1.791219 0.005142 -0.445139
v -0.921717 0.793348 0.927995
v -0.672705 1.727585 -1.371030
v -0.166442 0.020918 0.661894
v -0.770623 0.954444 -0.361332
v -1.156384 1.577610 -0.222995
v 1.865541 0.016521 0.454213
v -0.118277 0.019861 -0.225266
v 0.416877 8.580000 -1.250000
v 0.436466 7.733038 -1.250000
v 0.512884 8.575277 -1.250000
v 1.022650 7.992297 -1.250000
v 1.199475 7.144974 -1.250000
v 0.439573 7.564076 -1.250000
v 0.055857 6.995367 -1.250000
v -0.041246 7.072956 -1.250000
v 0.569654 7.002790 -1.250000
v 0.451407 6.992429 -1.250000
v 0.513603 8.417680 -1.250000
v 0.888564 7.992092 -1.250000
v 0.515631 8.221581 -1.250000
v 1.018564 7.660861 -1.250000
v 0.519661 8.081888 -1.250000
v 0.887905 7.661846 -1.250000
v 0.009857 8.106817 -1.250000
v 0.215551 8.360003 -1.250000
v 0.147728 8.116802 -1.250000
v 0.282585 8.276104 -1.250000
v 0.419943 8.422234 -1.250000
v 0.433422 7.872576 -1.250000
vt 0.726589 0.434284
vt 0.774552 0.377487
vt 0.731541 0.932070
vt 0.553610 0.863945
vt 0.675995 0.973173
vt 0.712799 0.950311
vt 0.852389 0.384120
vt 0.847405 0.420975
vt 0.332089 0.813668
vt 0.285136 0.704114
vt 0.335452 0.748306
vt 0.351486 0.631752
vt 0.320511 0.595711
vt 0.818515 0.915409
vt 0.970596 0.510852
vt 0.909781 0.876062
vt 0.630297 0.516659
vt 0.475332 0.719279
vt 0.448541 0.806664
vt 0.422863 0.758562
vt 0.630932 0.315645
vt 0.736222 0.272485
vt 0.794475 0.237775
vt 0.523399 0.294260
vt 0.615465 0.247109
vt 0.600872 0.285266
vt 0.583842 0.320871
vt 0.985707 0.417691
vt 0.303037 0.831141
vt 0.301387 0.559656
vt 0.241314 0.682400
vt 0.258877 0.806245
vt 0.234377 0.792415
vt 0.068842 0.932184
vt 0.169393 0.856993
vt 0.157681 0.862253
vt 0.096597 0.939925
vt 0.705355 0.249013
vt 0.378124 0.185822
vt 0.362983 0.235140
vt 0.394951 0.198341
vt 0.640920 0.285715
vt 0.504868 0.249845
vt 0.511433 0.290230
vt 0.480362 0.285578
vt 0.474162 0.279866
vt 0.445270 0.208207
vt 0.413368 0.215919
vt 0.426965 0.264490
vt 0.422879 0.494927
vt 0.613453 0.294170
vt 0.657009 0.239600
vt 0.635601 0.276965
vt 0.643407 0.246085
vt 0.378470 0.180317
vn -0.013435 0.030622 0.999441
vn -0.013435 0.030622 0.999441
vn -0.013435 0.030622 0.999441
vn -0.152537 0.049372 0.987064
vn -0.131745 0.044525 0.990283
vn -0.083264 0.032828 0.995987
vn 0.146007 -0.021352 0.989053
vn 0.056611 0.006371 0.998376
vn -0.118748 0.203595 0.971827
vn -0.052611 0.044403 0.997627
vn -0.052095 0.043170 0.997709
vn -0.050704 0.039849 0.997918
vn -0.764690 -0.625555 -0.154696
vn -0.783813 -0.533437 -0.317933
vn -0.779584 -0.578939 -0.238911
vn -0.695128 -0.541074 -0.473325
vn -0.768169 -0.486381 -0.416354
vn -0.989885 0.096953 0.103577
vn -0.985646 0.091423 0.141929
vn -0.992353 0.089169 0.085345
vn -0.986354 0.089525 0.138168
vn -0.997827 0.063584 -0.017262
vn 0.994913 0.077161 0.064772
vn 0.993425 0.066959 0.092860
vn 0.988464 0.056154 0.140665
vn 0.985216 0.065957 0.158109
vn 0.986958 0.108373 0.119033
vn 0.992212 -0.094803 -0.080797
vn 0.066359 -0.877271 -0.475387
vn 0.091596 -0.609958 -0.787122
vn 0.206788 -0.463232 -0.861774
vn 0.896350 0.443099 0.014801
vn 0.896350 0.443099 0.014801
vn 0.896350 0.443099 0.014801
vn 0.896350 0.443099 0.014801
vn -0.254159 0.963635 0.082524
vn -0.254159 0.963635 0.082524
vn -0.254159 0.963635 0.082524
vn -0.254159 0.963635 0.082524
vn -0.005373 0.026643 -0.999631
vn -0.000000 0.000000 -1.000000
vn -0.000000 0.000000 -1.000000
vn -0.031485 0.024336 -0.999208
vn -0.961117 0.272877 0.042326
vn -0.961117 0.272877 0.042326
vn -0.961117 0.272877 0.042326
vn -0.961117 0.272877 0.042326
vn 0.100242 -0.405286 0.908677
vn 0.100242 -0.405286 0.908677
vn 0.077866 -0.687489 0.722008
vn 0.057888 -0.832692 0.550703
vn -0.790493 -0.468691 -0.394270
vn -0.826125 -0.473794 -0.305019
vn -0.805595 -0.564923 -0.178546
vn -0.734230 -0.646023 -0.208712
vn -0.869535 -0.472258 -0.144505
vn -0.036381 -0.963066 -0.266798
vn 0.000000 0.000000 -1.000000
vn 0.000000 0.000000 -1.000000
vn 0.000000 0.000000 -1.000000
vn 0.000000 0.000000 -1.000000
vn 0.018323 0.035067 -0.999217
vn 0.020872 0.033562 -0.999219
vn 0.002394 0.009959 -0.999948
vn 0.000000 0.000000 -1.000000
vn 0.000000 0.000000 -1.000000
vn -0.007433 0.020613 -0.999760
vn 0.023360 0.025618 -0.999399
vn 0.000000 0.000000 -1.000000
vn -0.009330 0.025855 -0.999622
vn 0.025342 0.019267 -0.999493
vn -0.018742 0.028637 -0.999414
vn -0.017083 0.027311 -0.999481
vn 0.037744 0.018385 -0.999118
vn 0.021429 0.019979 -0.999571
vn 0.000000 0.000000 -1.000000
vn 0.000000 0.000000 -1.000000
vn 0.011527 0.017134 -0.999787
vn -0.015442 0.028382 -0.999478
vn 0.000000 0.000000 -1.000000
vn 0.000000 0.000000 -1.000000
vn 0.000000 0.000000 -1.000000
vn 0.000000 0.000000 -1.000000
s off
g polySurface1
usemtl initialShadingGroup
f 1/1/1 2/2/2 3/3/3
s 1
f 7/4/4 1/1/5 5/5/6
f 5/5/6 1/1/5 16/6/7
f 16/6/7 1/1/5 3/3/8
s 2
f 13/7/9 11/8/10 2/2/11
f 3/3/12 2/2/11 11/8/10
s 3
f 18/9/13 19/10/14 22/11/15
f 22/11/15 19/10/14 6/12/16
f 19/10/14 17/13/17 6/12/16
s 4
f 3/3/18 11/8/19 20/14/20
f 11/8/19 12/15/21 20/14/20
f 4/16/22 20/14/20 12/15/21
s 5
f 10/17/23 1/1/24 8/18/25
f 1/1/24 7/4/26 8/18/25
f 7/4/26 21/19/27 8/18/25
f 21/19/27 15/20/28 8/18/25
s 6
f 15/20/29 6/12/30 8/18/31
s off
f 2/2/32 1/1/33 10/21/34 9/22/35
f 9/22/36 14/23/37 13/7/38 2/2/39
s 7
f 31/24/40 37/25/41 38/26/42 27/27/43
s off
f 11/8/44 13/7/45 14/28/46 12/15/47
s 6
f 7/4/48 5/29/49 18/9/50 21/19/51
s 3
f 4/30/52 17/13/17 19/10/14 20/31/53
f 16/32/54 19/10/14 18/9/13 5/29/55
f 20/31/53 19/10/14 16/32/54 3/33/56
s 6
f 15/20/29 22/11/57 6/12/30
f 21/19/51 18/9/50 22/11/57 15/20/29
s off
f 41/34/58 42/35/59 43/36/60 44/37/61
s 7
f 9/22/62 25/38/63 14/23/64
f 25/55/63 23/39/65 14/40/64
f 14/40/64 23/39/65 40/41/66
f 9/22/62 10/21/67 26/42/68 25/38/63
f 28/43/69 32/44/70 29/45/71
f 6/12/72 17/13/73 32/44/70
f 17/13/73 29/45/71 32/44/70
f 17/13/73 4/30/74 30/46/75 29/45/71
f 24/47/76 30/46/75 39/48/77
f 39/48/77 30/46/75 12/49/78
f 4/30/74 12/49/78 30/46/75
f 6/12/72 32/44/70 8/50/79
f 32/44/70 31/24/40 8/50/79
f 31/24/40 27/27/43 8/50/79
f 8/50/79 27/27/43 10/21/67
f 38/26/42 36/51/80 27/27/43
f 10/21/67 27/27/43 26/42/68
f 27/27/43 36/51/80 26/42/68
f 33/52/81 34/53/82 35/54/83
f 35/54/83 34/53/82 36/51/80
f 36/51/80 34/53/82 26/42/68
f 12/49/78 14/40/64 40/41/66 39/48/77
g default
v 0.055857 6.995367 -1.160007
v 0.439573 7.564077 -1.160007
v -0.041246 7.072956 -1.160007
v 0.436466 7.733039 -1.160007
v 0.513603 8.417680 -1.160007
v 0.888564 7.992092 -1.160007
v 0.512884 8.575278 -1.160007
v 1.022650 7.992298 -1.160007
v 0.433422 7.872576 -1.160007
v 0.419943 8.422234 -1.160007
v 0.416876 8.580000 -1.160007
v 0.515631 8.221582 -1.160007
v 0.519661 8.081888 -1.160007
v 0.569654 7.002791 -1.160007
v 0.451407 6.992429 -1.160007
v 0.887905 7.661846 -1.160007
v 1.018564 7.660862 -1.160007
v 0.009857 8.106817 -1.160007
v 0.215551 8.360004 -1.160007
v 0.282585 8.276104 -1.160007
v 0.147728 8.116802 -1.160007
v 0.439573 7.564077 -1.250000
v 0.055857 6.995367 -1.250000
v -0.041246 7.072956 -1.250000
v 0.436466 7.733039 -1.250000
v 0.888564 7.992092 -1.250000
v 0.513603 8.417680 -1.250000
v 0.512884 8.575278 -1.250000
v 1.022650 7.992298 -1.250000
v 0.433422 7.872576 -1.250000
v 0.419943 8.422234 -1.250000
v 0.416877 8.580000 -1.250000
v 0.515631 8.221582 -1.250000
v 0.519661 8.081888 -1.250000
v 0.569654 7.002791 -1.250000
v 0.451407 6.992429 -1.250000
v 0.887905 7.661846 -1.250000
v 1.018564 7.660862 -1.250000
v 0.009857 8.106817 -1.250000
v 0.215551 8.360004 -1.250000
v 0.282585 8.276104 -1.250000
v 0.147728 8.116802 -1.250000
vt 0.174444 0.324918
vt 0.086192 0.395084
vt 0.072352 0.387684
vt 0.173436 0.302795
vt 0.281002 0.093140
vt 0.209055 0.191840
vt 0.193122 0.178300
vt 0.284918 0.069030
vt 0.168654 0.183835
vt 0.179144 0.200893
vt 0.175287 0.285334
vt 0.208260 0.229111
vt 0.208577 0.251336
vt 0.211885 0.373716
vt 0.195016 0.379180
vt 0.314104 0.293494
vt 0.336075 0.293789
vt 0.071817 0.244244
vt 0.105334 0.209620
vt 0.128726 0.208542
vt 0.100608 0.245506
vt 0.166523 0.362797
vt 0.084620 0.422921
vt 0.044315 0.399970
vt 0.135852 0.304437
vt 0.313579 0.093583
vt 0.244582 0.201111
vt 0.167821 0.150337
vt 0.280572 0.039940
vt 0.157040 0.265260
vt 0.172941 0.226019
vt 0.141228 0.160163
vt 0.242172 0.215322
vt 0.224797 0.285059
vt 0.235429 0.384115
vt 0.197031 0.409242
vt 0.325260 0.324416
vt 0.360079 0.281642
vt 0.046940 0.257647
vt 0.074765 0.193141
vt 0.145656 0.222164
vt 0.120378 0.230710
vn -0.000000 0.000000 -1.000000
vn 0.000000 0.000000 -1.000000
vn 0.000000 0.000000 -1.000000
vn 0.000000 0.000000 -1.000000
vn 0.000000 0.000000 -1.000000
vn 0.000000 0.000000 -1.000000
vn 0.000000 0.000000 -1.000000
vn 0.000000 0.000000 -1.000000
vn 0.000000 0.000000 -1.000000
vn 0.000000 0.000000 -1.000000
vn -0.000000 0.000000 -1.000000
vn 0.000000 0.000000 -1.000000
vn 0.000000 0.000000 -1.000000
vn -0.000000 0.000000 -1.000000
vn 0.000000 0.000000 -1.000000
vn 0.000000 0.000000 -1.000000
vn 0.000000 0.000000 -1.000000
vn 0.000000 0.000000 -1.000000
vn 0.000000 0.000000 -1.000000
vn 0.000000 0.000000 -1.000000
vn 0.000000 0.000000 -1.000000
vn 0.000000 0.000000 -1.000000
vn 0.000000 0.000000 -1.000000
vn 0.000000 0.000000 -1.000000
vn 0.000000 0.000000 -1.000000
vn 0.000000 0.000000 -1.000000
vn 0.000000 0.000000 -1.000000
vn 0.000000 0.000000 -1.000000
vn 0.000000 0.000000 -1.000000
vn -0.828959 0.559310 0.000000
vn -0.828959 0.559310 0.000000
vn -0.828959 0.559310 0.000000
vn -0.828959 0.559310 0.000000
vn 0.624236 0.781236 -0.000001
vn 0.624236 0.781236 -0.000001
vn 0.624236 0.781236 -0.000001
vn 0.624236 0.781236 -0.000001
vn 0.810104 -0.586286 0.000000
vn 0.810104 -0.586286 0.000000
vn 0.810104 -0.586286 0.000000
vn 0.810104 -0.586286 0.000000
vn 0.750325 0.661069 0.000000
vn 0.750325 0.661069 0.000000
vn 0.750325 0.661069 0.000000
vn 0.750325 0.661069 0.000000
vn -0.752795 -0.658255 0.000000
vn -0.752795 -0.658255 0.000000
vn -0.752795 -0.658255 0.000000
vn -0.752795 -0.658255 0.000000
vn -0.001530 0.999999 0.000000
vn -0.001530 0.999999 0.000000
vn -0.001530 0.999999 0.000000
vn -0.001530 0.999999 0.000000
vn 0.999700 0.024515 0.000000
vn 0.999700 0.024515 0.000000
vn 0.999700 0.024515 0.000000
vn 0.999700 0.024515 0.000000
vn -0.049128 -0.998792 -0.000001
vn -0.049128 -0.998792 -0.000001
vn -0.049128 -0.998792 -0.000001
vn -0.049128 -0.998792 -0.000001
vn -0.999946 -0.010342 0.000000
vn -0.999946 -0.010342 0.000000
vn -0.999946 -0.010342 0.000000
vn -0.999946 -0.010342 0.000000
vn -0.998928 -0.046279 0.000000
vn -0.998928 -0.046279 0.000000
vn -0.998928 -0.046279 0.000000
vn -0.998928 -0.046279 0.000000
vn -0.087290 0.996183 0.000000
vn -0.087290 0.996183 0.000000
vn -0.087290 0.996183 0.000000
vn -0.087290 0.996183 0.000000
vn 0.999786 0.020697 0.000000
vn 0.999786 0.020697 0.000000
vn 0.999786 0.020697 0.000000
vn 0.999786 0.020697 0.000000
vn 0.751949 0.659221 0.000000
vn 0.751949 0.659221 0.000000
vn 0.751949 0.659221 0.000000
vn 0.751949 0.659221 0.000000
vn -0.744425 -0.667706 0.000000
vn -0.744425 -0.667706 0.000000
vn -0.744425 -0.667706 0.000000
vn -0.744425 -0.667706 0.000000
vn 0.007537 0.999972 0.000000
vn 0.007537 0.999972 0.000000
vn 0.007537 0.999972 0.000000
vn 0.007537 0.999972 0.000000
vn 0.776142 -0.630558 -0.000003
vn 0.758119 -0.652116 -0.000001
vn 0.758119 -0.652116 -0.000001
vn 0.776142 -0.630558 -0.000003
vn -0.746534 0.665347 -0.000001
vn -0.763236 0.646120 -0.000002
vn -0.763236 0.646120 -0.000002
vn -0.746534 0.665347 -0.000001
vn 0.737719 -0.675108 0.000002
vn 0.737719 -0.675108 0.000002
vn -0.728638 0.684899 -0.000000
vn -0.728638 0.684899 -0.000000
vn 0.658999 0.752144 -0.000003
vn 0.658999 0.752144 -0.000003
vn 0.658999 0.752144 -0.000003
vn 0.658999 0.752144 -0.000003
vn -0.649786 -0.760117 -0.000004
vn -0.649786 -0.760117 -0.000004
vn -0.649787 -0.760117 -0.000004
vn -0.649786 -0.760117 -0.000004
s 1
g polySurface2 pCube1
usemtl initialShadingGroup
f 46/56/84 45/57/85 47/58/86 48/59/87
f 50/60/88 49/61/89 51/62/90 52/63/91
f 55/64/92 51/62/90 54/65/93
f 51/62/90 49/61/89 54/65/93
f 54/65/93 49/61/89 53/66/94
f 49/61/89 56/67/95 53/66/94
f 56/67/95 57/68/96 53/66/94
f 57/68/96 58/69/97 53/66/94
f 53/66/94 58/69/97 48/59/87
f 48/59/87 58/69/97 46/56/84
f 46/56/84 58/69/97 59/70/98
f 60/71/99 57/68/96 56/67/95 61/72/100
s off
f 62/73/101 63/74/102 64/75/103 65/76/104
f 63/74/105 55/64/106 54/65/107 64/75/108
f 48/59/109 62/73/110 65/76/111 53/66/112
f 66/77/113 67/78/114 45/57/115 46/56/116
f 67/78/117 68/79/118 47/58/119 45/57/120
f 68/79/121 69/80/122 48/59/123 47/58/124
f 70/81/125 71/82/126 49/61/127 50/60/128
f 72/83/129 73/84/130 52/63/131 51/62/132
f 73/84/133 70/81/134 50/60/135 52/63/136
f 74/85/137 75/86/138 54/65/139 53/66/140
f 76/87/141 72/83/142 51/62/143 55/64/144
f 71/82/145 77/88/146 56/67/147 49/61/148
f 78/89/149 79/90/150 58/69/151 57/68/152
f 79/90/153 80/91/154 59/70/155 58/69/156
f 80/91/157 66/77/158 46/56/159 59/70/160
f 81/92/161 78/89/162 57/68/163 60/71/164
f 77/88/165 82/93/166 61/72/167 56/67/168
f 82/93/169 81/92/170 60/71/171 61/72/172
s 3
f 83/94/173 84/95/174 63/74/175 62/73/176
s 4
f 85/96/177 86/97/178 65/76/179 64/75/180
s 3
f 84/95/174 76/87/181 55/64/182 63/74/175
s 4
f 75/86/183 85/96/177 64/75/180 54/65/184
s off
f 69/80/185 83/94/186 62/73/187 48/59/188
f 86/97/189 74/85/190 53/66/191 65/76/192
